<svg id="svg" version="1.1" width="400" height="400" xmlns="http://www.w3.org/2000/svg" xmlns:xlink="http://www.w3.org/1999/xlink" style="display: block;"><g id="svgg"><path id="path0" d="M309.330 123.656 C 306.847 124.421,304.525 126.974,303.973 129.546 C 302.295 137.372,311.670 142.497,317.323 136.844 C 323.166 131.001,317.238 121.221,309.330 123.656 M313.477 123.869 C 322.762 126.405,319.555 140.827,310.175 138.720 C 302.541 137.004,302.238 126.036,309.766 123.896 C 311.592 123.377,311.676 123.377,313.477 123.869 M308.594 131.009 C 308.594 134.435,308.696 135.156,309.180 135.156 C 309.603 135.156,309.766 134.722,309.766 133.594 C 309.766 131.315,311.549 131.311,313.158 133.585 C 313.763 134.440,314.478 135.143,314.746 135.148 C 315.447 135.160,315.362 134.881,314.207 133.367 L 313.180 132.020 314.207 131.068 C 316.376 129.058,315.008 127.271,311.111 127.022 L 308.594 126.862 308.594 131.009 M313.307 128.139 C 315.230 129.168,313.792 131.250,311.158 131.250 C 309.768 131.250,309.766 131.247,309.766 129.492 C 309.766 127.603,311.247 127.037,313.307 128.139 M171.484 249.609 L 171.484 252.770 174.121 252.655 L 176.758 252.539 176.758 249.609 L 176.758 246.680 174.121 246.564 L 171.484 246.449 171.484 249.609 M269.975 258.468 L 262.465 267.326 262.580 269.503 L 262.695 271.680 269.922 271.875 C 277.368 272.076,277.997 272.208,279.562 273.890 C 282.102 276.620,281.728 286.623,279.040 287.848 C 278.366 288.155,268.199 288.281,244.180 288.281 L 210.272 288.281 210.045 281.934 C 209.650 270.881,207.426 267.202,200.422 266.021 C 191.061 264.442,185.222 270.428,185.616 281.200 C 185.946 290.224,188.926 292.847,199.316 293.257 L 204.688 293.469 204.688 295.387 C 204.688 300.000,203.319 300.927,196.152 301.172 L 190.430 301.367 190.430 303.711 L 190.430 306.055 195.898 306.055 C 206.045 306.055,209.092 303.836,209.966 295.813 L 210.230 293.383 245.447 293.274 C 276.949 293.176,280.808 293.097,282.031 292.531 C 285.310 291.012,286.355 288.622,286.621 282.031 C 287.065 271.045,284.062 267.312,274.436 266.887 C 271.953 266.778,269.922 266.606,269.922 266.506 C 269.922 266.406,272.471 263.361,275.586 259.739 C 278.701 256.118,281.241 252.928,281.230 252.651 C 281.210 252.157,278.306 249.609,277.762 249.609 C 277.609 249.609,274.105 253.596,269.975 258.468 M167.350 254.436 C 167.239 254.727,167.200 256.089,167.265 257.463 L 167.383 259.961 170.020 260.076 L 172.656 260.192 172.656 257.049 L 172.656 253.906 170.105 253.906 C 168.318 253.906,167.493 254.065,167.350 254.436 M175.391 257.031 L 175.391 260.192 178.027 260.076 L 180.664 259.961 180.664 257.031 L 180.664 254.102 178.027 253.986 L 175.391 253.871 175.391 257.031 M115.820 267.266 C 115.718 267.545,115.589 274.757,115.532 283.292 L 115.430 298.811 114.388 299.853 C 113.557 300.683,112.845 300.942,110.872 301.131 L 108.398 301.367 108.398 303.711 L 108.398 306.055 111.009 305.996 C 117.742 305.845,120.580 302.797,120.995 295.268 L 121.207 291.413 122.615 292.288 L 124.023 293.164 148.047 293.164 C 179.333 293.164,176.563 294.692,176.563 277.438 L 176.563 266.760 174.121 266.876 L 171.680 266.992 171.484 277.083 C 171.302 286.497,171.238 287.211,170.531 287.727 C 169.395 288.557,125.093 288.551,123.487 287.721 C 121.317 286.599,121.304 286.535,121.094 276.406 L 120.898 266.992 118.452 266.876 C 116.716 266.793,115.952 266.907,115.820 267.266 M201.568 271.582 C 204.020 273.248,204.476 274.792,204.623 281.934 L 204.755 288.281 200.157 288.281 C 192.909 288.281,191.063 286.935,190.707 281.392 C 190.187 273.286,196.150 267.900,201.568 271.582 M224.219 330.469 L 224.219 339.844 225.195 339.844 L 226.172 339.844 226.181 335.059 C 226.191 329.270,227.050 327.734,230.278 327.734 C 232.798 327.734,233.594 329.462,233.594 334.931 L 233.594 339.844 234.610 339.844 L 235.625 339.844 235.488 334.863 C 235.268 326.832,231.495 323.651,227.093 327.786 L 226.172 328.652 226.172 324.873 C 226.172 321.102,226.170 321.094,225.195 321.094 L 224.219 321.094 224.219 330.469 M109.375 330.859 L 109.375 339.844 110.352 339.844 C 111.287 339.844,111.328 339.742,111.328 337.457 C 111.328 335.234,111.438 334.938,112.927 333.160 C 115.033 330.644,114.923 330.598,118.750 335.547 C 121.572 339.196,122.235 339.840,123.165 339.842 C 124.252 339.844,124.245 339.826,121.883 336.816 C 120.576 335.151,118.779 332.855,117.890 331.714 L 116.274 329.639 120.141 325.757 C 123.797 322.088,123.946 321.875,122.867 321.875 C 121.911 321.875,120.880 322.751,116.546 327.246 L 111.368 332.617 111.348 327.246 L 111.328 321.875 110.352 321.875 L 109.375 321.875 109.375 330.859 M201.563 324.609 C 201.563 326.302,201.458 326.563,200.781 326.563 C 200.260 326.563,200.000 326.823,200.000 327.344 C 200.000 327.851,200.260 328.125,200.742 328.125 C 201.426 328.125,201.495 328.522,201.621 333.163 C 201.792 339.443,202.656 340.686,206.348 339.958 C 207.892 339.654,207.842 338.355,206.295 338.582 C 203.789 338.950,203.516 338.401,203.516 332.994 L 203.516 328.125 205.469 328.125 C 207.161 328.125,207.422 328.021,207.422 327.344 C 207.422 326.667,207.161 326.563,205.469 326.563 L 203.516 326.563 203.516 324.609 C 203.516 322.786,203.451 322.656,202.539 322.656 C 201.628 322.656,201.563 322.786,201.563 324.609 M142.191 326.679 C 141.002 326.997,140.391 327.387,140.296 327.889 C 140.171 328.546,140.302 328.592,141.464 328.300 C 145.521 327.279,148.438 328.483,148.438 331.177 L 148.438 332.232 145.368 332.093 C 141.648 331.924,140.067 332.574,139.210 334.625 C 137.413 338.926,143.879 342.037,147.516 338.620 L 148.438 337.754 148.438 338.799 C 148.438 339.583,148.632 339.844,149.219 339.844 C 150.314 339.844,150.416 330.316,149.340 328.495 C 148.253 326.656,145.189 325.878,142.191 326.679 M255.082 326.679 C 253.893 326.997,253.282 327.387,253.187 327.889 C 253.062 328.546,253.193 328.592,254.355 328.300 C 258.411 327.279,261.328 328.483,261.328 331.177 L 261.328 332.232 258.259 332.093 C 254.539 331.924,252.957 332.574,252.100 334.625 C 250.303 338.926,256.770 342.037,260.407 338.620 L 261.328 337.754 261.328 338.799 C 261.328 339.583,261.523 339.844,262.109 339.844 C 263.205 339.844,263.306 330.316,262.230 328.495 C 261.144 326.656,258.080 325.878,255.082 326.679 M285.332 326.721 C 284.677 327.007,283.666 327.804,283.086 328.494 L 282.031 329.747 282.031 328.155 C 282.031 326.717,281.937 326.563,281.055 326.563 L 280.078 326.563 280.078 333.203 L 280.078 339.844 281.055 339.844 C 282.029 339.844,282.031 339.833,282.031 336.094 C 282.031 330.945,283.008 329.070,286.092 328.296 C 286.833 328.110,287.109 327.787,287.109 327.106 C 287.109 326.039,286.969 326.008,285.332 326.721 M166.016 326.917 C 166.016 327.112,167.004 330.100,168.211 333.558 C 171.026 341.616,171.204 341.664,173.436 334.965 C 175.496 328.783,175.361 328.793,177.418 334.676 C 179.987 342.026,179.972 342.041,184.987 327.214 C 185.181 326.641,185.054 326.524,184.344 326.628 C 183.583 326.740,183.218 327.485,181.722 331.978 C 179.728 337.964,179.933 337.996,177.708 331.348 C 175.562 324.933,175.296 324.961,173.048 331.833 C 172.099 334.732,171.206 336.974,171.062 336.814 C 170.918 336.654,170.061 334.282,169.157 331.543 C 167.812 327.466,167.378 326.563,166.765 326.563 C 166.353 326.563,166.016 326.722,166.016 326.917 M147.820 333.440 C 148.978 333.885,148.617 336.498,147.236 337.661 C 144.781 339.726,140.625 338.651,140.625 335.951 C 140.625 333.769,144.842 332.298,147.820 333.440 M260.710 333.440 C 261.869 333.885,261.507 336.498,260.126 337.661 C 257.672 339.726,253.516 338.651,253.516 335.951 C 253.516 333.769,257.733 332.298,260.710 333.440 " stroke="none" fill="#000000" fill-rule="evenodd"></path><path id="path1" d="M220.483 83.691 L 219.336 84.961 220.605 83.814 C 221.304 83.183,221.875 82.611,221.875 82.544 C 221.875 82.242,221.553 82.508,220.483 83.691 M212.671 91.113 L 211.523 92.383 212.793 91.236 C 213.491 90.604,214.063 90.033,214.063 89.966 C 214.063 89.664,213.740 89.930,212.671 91.113 M204.468 98.926 L 203.320 100.195 204.590 99.048 C 205.288 98.417,205.859 97.846,205.859 97.778 C 205.859 97.477,205.537 97.742,204.468 98.926 M310.803 123.535 C 310.902 123.696,311.314 123.828,311.719 123.828 C 312.123 123.828,312.535 123.696,312.635 123.535 C 312.735 123.374,312.322 123.242,311.719 123.242 C 311.115 123.242,310.703 123.374,310.803 123.535 M316.171 125.098 C 316.017 125.366,316.036 125.454,316.214 125.292 C 316.649 124.898,318.017 126.168,317.704 126.675 C 317.557 126.912,317.652 126.954,317.938 126.777 C 318.291 126.559,318.186 126.233,317.539 125.545 C 316.516 124.456,316.537 124.462,316.171 125.098 M273.608 128.613 L 272.461 129.883 273.730 128.736 C 274.429 128.104,275.000 127.533,275.000 127.466 C 275.000 127.164,274.678 127.430,273.608 128.613 M310.449 128.010 C 310.933 128.103,311.724 128.103,312.207 128.010 C 312.690 127.917,312.295 127.841,311.328 127.841 C 310.361 127.841,309.966 127.917,310.449 128.010 M310.449 131.135 C 310.933 131.228,311.724 131.228,312.207 131.135 C 312.690 131.042,312.295 130.966,311.328 130.966 C 310.361 130.966,309.966 131.042,310.449 131.135 M265.604 136.230 L 264.258 137.695 265.723 136.349 C 267.086 135.096,267.367 134.766,267.069 134.766 C 267.004 134.766,266.344 135.425,265.604 136.230 M310.634 139.001 C 310.326 139.196,310.648 139.306,311.474 139.288 C 312.210 139.271,312.732 139.126,312.633 138.965 C 312.398 138.580,311.264 138.600,310.634 139.001 M171.225 249.609 C 171.225 251.221,171.294 251.880,171.378 251.074 C 171.463 250.269,171.463 248.950,171.378 248.145 C 171.294 247.339,171.225 247.998,171.225 249.609 M175.131 257.031 C 175.131 258.643,175.200 259.302,175.285 258.496 C 175.369 257.690,175.369 256.372,175.285 255.566 C 175.200 254.761,175.131 255.420,175.131 257.031 M172.781 257.031 C 172.781 258.428,172.852 258.999,172.939 258.301 C 173.025 257.603,173.025 256.460,172.939 255.762 C 172.852 255.063,172.781 255.635,172.781 257.031 M176.730 276.367 C 176.730 281.309,176.786 283.276,176.854 280.740 C 176.923 278.203,176.922 274.160,176.854 271.755 C 176.785 269.350,176.730 271.426,176.730 276.367 M280.998 280.664 C 280.997 282.598,281.063 283.438,281.145 282.531 C 281.227 281.625,281.228 280.043,281.147 279.016 C 281.066 277.989,280.999 278.730,280.998 280.664 M185.277 280.273 C 185.279 281.563,185.352 282.043,185.439 281.341 C 185.526 280.639,185.524 279.584,185.435 278.997 C 185.346 278.410,185.275 278.984,185.277 280.273 M150.149 335.352 C 150.150 337.930,150.213 338.934,150.290 337.582 C 150.366 336.231,150.365 334.122,150.288 332.895 C 150.211 331.668,150.148 332.773,150.149 335.352 M263.040 335.352 C 263.041 337.930,263.104 338.934,263.180 337.582 C 263.257 336.231,263.256 334.122,263.179 332.895 C 263.102 331.668,263.039 332.773,263.040 335.352 M143.848 331.910 C 144.224 332.008,144.839 332.008,145.215 331.910 C 145.591 331.812,145.283 331.731,144.531 331.731 C 143.779 331.731,143.472 331.812,143.848 331.910 M256.738 331.910 C 257.114 332.008,257.729 332.008,258.105 331.910 C 258.481 331.812,258.174 331.731,257.422 331.731 C 256.670 331.731,256.362 331.812,256.738 331.910 " stroke="none" fill="#6b6b6b" fill-rule="evenodd"></path><path id="path2" d="M118.146 76.660 L 116.602 78.320 118.262 76.776 C 119.806 75.340,120.101 75.000,119.806 75.000 C 119.742 75.000,118.995 75.747,118.146 76.660 M165.234 75.513 C 165.234 75.580,165.806 76.151,166.504 76.782 L 167.773 77.930 166.626 76.660 C 165.557 75.477,165.234 75.211,165.234 75.513 M223.224 80.957 L 221.680 82.617 223.340 81.073 C 224.884 79.637,225.180 79.297,224.884 79.297 C 224.820 79.297,224.073 80.044,223.224 80.957 M215.213 88.574 L 213.867 90.039 215.332 88.693 C 216.695 87.440,216.976 87.109,216.678 87.109 C 216.613 87.109,215.954 87.769,215.213 88.574 M207.010 96.387 L 205.664 97.852 207.129 96.505 C 208.492 95.252,208.773 94.922,208.475 94.922 C 208.410 94.922,207.751 95.581,207.010 96.387 M199.198 103.809 L 197.852 105.273 199.316 103.927 C 200.680 102.674,200.961 102.344,200.663 102.344 C 200.597 102.344,199.938 103.003,199.198 103.809 M271.073 131.152 L 269.727 132.617 271.191 131.271 C 272.555 130.018,272.836 129.688,272.538 129.688 C 272.472 129.688,271.813 130.347,271.073 131.152 M262.870 138.965 L 261.523 140.430 262.988 139.084 C 264.352 137.831,264.633 137.500,264.334 137.500 C 264.269 137.500,263.610 138.159,262.870 138.965 M270.489 202.051 L 268.945 203.711 270.605 202.167 C 272.149 200.731,272.445 200.391,272.150 200.391 C 272.086 200.391,271.339 201.138,270.489 202.051 M118.343 202.441 C 119.962 204.166,120.313 204.476,120.313 204.183 C 120.313 204.120,119.478 203.285,118.457 202.327 L 116.602 200.586 118.343 202.441 M165.995 202.637 L 164.648 204.102 166.113 202.755 C 167.477 201.502,167.758 201.172,167.459 201.172 C 167.394 201.172,166.735 201.831,165.995 202.637 M171.263 276.563 C 171.263 281.826,171.318 283.979,171.386 281.348 C 171.453 278.716,171.453 274.409,171.386 271.777 C 171.318 269.146,171.263 271.299,171.263 276.563 M262.230 269.336 C 262.233 270.625,262.306 271.105,262.392 270.403 C 262.479 269.701,262.478 268.646,262.388 268.059 C 262.299 267.472,262.228 268.047,262.230 269.336 M190.746 280.273 C 190.748 281.563,190.821 282.043,190.908 281.341 C 190.995 280.639,190.993 279.584,190.904 278.997 C 190.815 278.410,190.744 278.984,190.746 280.273 M176.653 286.328 C 176.653 287.080,176.734 287.388,176.832 287.012 C 176.930 286.636,176.930 286.021,176.832 285.645 C 176.734 285.269,176.653 285.576,176.653 286.328 M189.965 303.711 C 189.967 305.000,190.040 305.480,190.127 304.778 C 190.214 304.076,190.212 303.021,190.123 302.434 C 190.034 301.847,189.963 302.422,189.965 303.711 M109.152 330.859 C 109.152 335.908,109.208 337.974,109.276 335.449 C 109.344 332.925,109.344 328.794,109.276 326.270 C 109.208 323.745,109.152 325.811,109.152 330.859 M120.889 325.098 L 117.773 328.320 120.996 325.204 C 123.989 322.311,124.397 321.875,124.112 321.875 C 124.053 321.875,122.603 323.325,120.889 325.098 M114.440 329.199 L 112.305 331.445 114.551 329.310 C 116.637 327.327,116.976 326.953,116.686 326.953 C 116.625 326.953,115.614 327.964,114.440 329.199 M204.597 328.408 C 205.299 328.495,206.354 328.493,206.941 328.404 C 207.528 328.315,206.953 328.244,205.664 328.246 C 204.375 328.248,203.895 328.321,204.597 328.408 M207.326 338.867 C 207.429 339.404,207.580 339.844,207.663 339.844 C 207.745 339.844,207.813 339.404,207.813 338.867 C 207.813 338.330,207.661 337.891,207.476 337.891 C 207.291 337.891,207.224 338.330,207.326 338.867 " stroke="none" fill="#aaaaaa" fill-rule="evenodd"></path><path id="path3" d="M47.266 0.573 C 24.056 4.506,5.874 22.052,0.905 45.313 C -0.201 50.487,-0.201 349.513,0.905 354.688 C 5.711 377.187,22.813 394.289,45.313 399.095 C 50.487 400.201,349.513 400.201,354.688 399.095 C 377.187 394.289,394.289 377.187,399.095 354.688 C 400.201 349.513,400.201 50.487,399.095 45.313 C 394.318 22.950,377.897 6.387,355.078 0.916 C 351.257 0.000,52.612 -0.333,47.266 0.573 M151.366 67.749 C 164.447 71.670,173.614 81.872,175.783 94.922 C 176.585 99.750,176.118 184.061,175.274 186.890 C 165.803 218.609,123.570 221.524,111.011 191.324 C 108.489 185.260,108.557 186.812,108.679 138.086 L 108.789 93.945 109.903 90.625 C 115.931 72.655,134.167 62.593,151.366 67.749 M258.984 67.457 C 280.950 71.812,293.041 96.038,283.391 116.358 C 281.378 120.596,279.147 123.486,274.153 128.320 C 271.712 130.684,267.839 134.432,265.548 136.651 L 261.381 140.685 268.174 149.253 C 278.591 162.393,280.859 167.460,280.859 177.590 C 280.859 207.962,244.115 223.483,222.137 202.396 C 219.799 200.152,186.388 157.984,184.630 155.058 C 177.608 143.369,178.163 128.370,186.035 117.103 C 187.575 114.898,227.622 76.480,231.299 73.681 C 235.573 70.425,241.310 67.996,246.553 67.222 C 248.127 66.989,249.854 66.733,250.391 66.652 C 251.823 66.436,255.640 66.794,258.984 67.457 M314.759 123.654 C 323.092 127.134,320.567 139.453,311.520 139.453 C 307.349 139.453,303.516 135.621,303.516 131.452 C 303.516 125.562,309.459 121.440,314.759 123.654 M308.773 124.562 C 301.027 128.081,304.698 140.076,313.042 138.511 C 321.545 136.915,320.365 123.845,311.719 123.845 C 310.967 123.845,309.641 124.168,308.773 124.562 M314.459 127.660 C 315.616 128.598,315.613 130.389,314.452 131.329 L 313.573 132.041 314.599 133.522 C 316.469 136.221,315.234 136.436,313.065 133.789 C 312.092 132.602,311.323 132.031,310.695 132.031 C 309.854 132.031,309.766 132.198,309.766 133.789 C 309.766 135.091,309.614 135.547,309.180 135.547 C 308.694 135.547,308.594 134.809,308.594 131.250 L 308.594 126.953 311.090 126.953 C 312.916 126.953,313.819 127.143,314.459 127.660 M309.766 129.514 L 309.766 130.902 311.581 130.783 C 314.959 130.562,314.863 128.125,311.476 128.125 C 309.777 128.125,309.766 128.134,309.766 129.514 M176.953 249.609 L 176.953 252.734 174.023 252.734 L 171.094 252.734 171.094 249.609 L 171.094 246.484 174.023 246.484 L 176.953 246.484 176.953 249.609 M279.785 250.814 C 282.144 252.836,282.540 251.936,275.842 259.796 L 270.043 266.602 274.768 266.807 C 284.184 267.216,286.719 270.150,286.719 280.642 C 286.719 286.950,286.177 289.485,284.482 291.108 C 282.028 293.459,283.763 293.359,245.325 293.359 L 210.156 293.359 210.156 295.437 C 210.156 303.389,206.134 306.366,195.663 306.163 L 190.039 306.055 190.039 303.711 L 190.039 301.367 195.525 301.172 C 202.773 300.914,203.996 300.162,204.528 295.635 L 204.786 293.433 198.946 293.299 C 188.292 293.053,184.685 289.313,185.257 279.102 C 185.755 270.213,189.985 265.820,198.047 265.820 C 207.057 265.820,209.766 269.324,210.062 281.358 L 210.233 288.302 244.276 288.194 C 281.664 288.075,279.716 288.214,280.493 285.621 C 281.249 283.097,280.828 276.056,279.842 274.734 C 278.081 272.374,277.032 272.089,269.336 271.875 L 262.305 271.680 262.305 269.430 L 262.305 267.180 269.900 258.199 C 274.077 253.260,277.592 249.220,277.712 249.221 C 277.832 249.223,278.765 249.939,279.785 250.814 M172.852 257.031 L 172.852 259.961 170.020 260.076 L 167.188 260.190 167.188 257.031 L 167.188 253.872 170.020 253.987 L 172.852 254.102 172.852 257.031 M180.859 257.031 L 180.859 260.156 177.930 260.156 L 175.000 260.156 175.000 257.031 L 175.000 253.906 177.930 253.906 L 180.859 253.906 180.859 257.031 M121.172 276.205 L 121.289 285.612 122.529 286.720 C 124.291 288.293,125.129 288.340,148.906 288.205 C 165.455 288.111,169.990 287.979,170.391 287.579 C 170.770 287.200,170.948 284.532,171.094 277.032 L 171.289 266.992 174.023 266.992 L 176.758 266.992 176.758 277.734 C 176.758 290.195,176.609 290.856,173.430 292.480 L 171.709 293.359 147.866 293.358 C 124.727 293.356,123.986 293.333,122.744 292.577 C 122.041 292.148,121.402 291.797,121.324 291.797 C 121.246 291.797,121.109 293.599,121.019 295.801 C 120.726 302.999,118.129 305.807,111.426 306.172 L 108.203 306.348 108.203 303.808 L 108.203 301.269 110.368 301.089 C 115.469 300.666,115.576 300.274,115.603 281.738 L 115.625 266.797 118.340 266.797 L 121.054 266.797 121.172 276.205 M196.060 271.056 C 192.631 272.164,191.016 275.082,191.016 280.170 C 191.016 286.624,192.534 287.962,200.146 288.213 L 204.785 288.366 204.623 282.354 C 204.371 272.969,201.573 269.277,196.060 271.056 M226.172 324.402 L 226.172 328.101 227.594 327.137 C 232.439 323.849,235.547 326.823,235.547 334.746 L 235.547 339.844 234.602 339.844 C 233.661 339.844,233.657 339.827,233.528 334.991 C 233.378 329.376,232.768 328.125,230.180 328.125 C 227.053 328.125,226.172 329.796,226.172 335.730 L 226.172 339.844 225.195 339.844 L 224.219 339.844 224.219 330.273 L 224.219 320.703 225.195 320.703 C 226.168 320.703,226.172 320.717,226.172 324.402 M111.415 327.058 L 111.523 332.241 116.406 327.093 C 121.031 322.216,121.371 321.942,122.844 321.910 L 124.399 321.875 120.549 325.740 C 117.853 328.446,116.794 329.763,117.015 330.134 C 117.189 330.426,118.970 332.729,120.974 335.254 L 124.616 339.844 123.241 339.844 C 121.956 339.844,121.644 339.561,118.477 335.536 L 115.087 331.229 113.208 333.080 C 111.358 334.903,111.328 334.970,111.328 337.388 L 111.328 339.844 110.156 339.844 L 108.984 339.844 108.984 330.859 L 108.984 321.875 110.145 321.875 L 111.306 321.875 111.415 327.058 M203.516 324.414 L 203.516 326.563 205.664 326.563 C 207.695 326.563,207.813 326.616,207.813 327.539 C 207.813 328.462,207.695 328.516,205.664 328.516 L 203.516 328.516 203.516 332.738 C 203.516 337.887,203.817 338.501,206.191 338.183 C 207.905 337.953,208.714 339.414,207.195 339.997 C 203.162 341.545,201.563 339.675,201.563 333.416 L 201.563 328.516 200.586 328.516 C 199.805 328.516,199.609 328.320,199.609 327.539 C 199.609 326.758,199.805 326.563,200.586 326.563 C 201.509 326.563,201.563 326.445,201.563 324.414 C 201.563 322.383,201.616 322.266,202.539 322.266 C 203.462 322.266,203.516 322.383,203.516 324.414 M148.463 327.160 C 150.004 328.533,150.391 330.136,150.391 335.144 L 150.391 339.844 149.414 339.844 C 148.703 339.844,148.438 339.635,148.438 339.074 C 148.438 338.350,148.352 338.363,146.973 339.305 C 143.591 341.614,138.672 339.646,138.672 335.984 C 138.672 332.867,141.176 331.377,145.767 331.762 C 148.623 332.001,148.652 331.981,148.027 330.190 C 147.358 328.269,144.678 327.570,141.813 328.568 C 140.522 329.018,139.866 328.661,139.850 327.498 C 139.830 326.093,146.952 325.813,148.463 327.160 M261.353 327.160 C 262.894 328.533,263.281 330.136,263.281 335.144 L 263.281 339.844 262.305 339.844 C 261.594 339.844,261.328 339.635,261.328 339.074 C 261.328 338.350,261.243 338.363,259.863 339.305 C 256.482 341.614,251.563 339.646,251.563 335.984 C 251.563 332.867,254.066 331.377,258.657 331.762 C 261.514 332.001,261.542 331.981,260.918 330.190 C 260.248 328.269,257.569 327.570,254.704 328.568 C 253.413 329.018,252.756 328.661,252.740 327.498 C 252.721 326.093,259.843 325.813,261.353 327.160 M287.500 327.344 C 287.500 328.265,287.329 328.516,286.699 328.516 C 283.751 328.516,282.330 330.840,282.105 336.035 C 281.945 339.742,281.915 339.844,281.009 339.844 L 280.078 339.844 280.078 333.203 L 280.078 326.563 281.055 326.563 C 281.914 326.563,282.031 326.730,282.031 327.960 L 282.031 329.357 283.074 328.118 C 284.964 325.871,287.500 325.427,287.500 327.344 M169.110 330.566 C 171.303 337.285,170.963 337.187,172.831 331.641 C 175.192 324.626,175.728 324.632,178.102 331.694 L 179.837 336.855 181.553 331.709 C 183.214 326.726,183.303 326.563,184.372 326.563 L 185.477 326.563 184.138 330.371 C 180.692 340.177,180.842 339.844,179.884 339.844 C 179.062 339.844,175.835 332.401,175.766 330.346 C 175.735 329.453,174.695 331.873,173.403 335.840 C 171.394 342.012,170.780 341.767,168.003 333.689 C 166.840 330.307,165.811 327.319,165.715 327.051 C 165.602 326.733,165.935 326.563,166.672 326.563 C 167.761 326.563,167.851 326.712,169.110 330.566 M142.589 333.616 C 138.964 335.146,141.522 339.463,145.370 338.310 C 147.587 337.646,149.417 334.636,148.100 333.822 C 147.376 333.374,143.504 333.230,142.589 333.616 M255.480 333.616 C 251.855 335.146,254.413 339.463,258.261 338.310 C 260.477 337.646,262.308 334.636,260.990 333.822 C 260.267 333.374,256.395 333.230,255.480 333.616 " stroke="none" fill="#ffffff" fill-rule="evenodd"></path><path id="path4" d="M138.086 66.955 C 123.695 69.284,113.361 78.504,109.643 92.331 L 108.789 95.508 108.789 139.453 C 108.789 180.069,108.841 183.601,109.474 186.066 C 118.333 220.559,166.334 220.811,175.109 186.410 L 175.977 183.008 175.977 139.453 L 175.977 95.898 175.083 92.383 C 170.866 75.796,154.205 64.345,138.086 66.955 M247.774 67.188 C 242.072 67.985,236.120 70.356,231.819 73.544 C 229.897 74.969,206.402 97.027,191.335 111.553 C 179.273 123.182,176.446 138.823,183.823 153.125 C 185.586 156.543,216.519 196.224,221.406 201.337 C 245.613 226.659,287.551 203.535,279.657 169.218 C 278.186 162.822,276.744 160.375,267.736 148.994 C 264.395 144.773,261.580 141.109,261.481 140.852 C 261.383 140.595,264.428 137.428,268.249 133.815 C 280.885 121.865,283.262 118.565,285.570 109.765 C 291.593 86.796,271.273 63.904,247.774 67.188 " stroke="none" fill="#b30000" fill-rule="evenodd"></path></g></svg>